<svg width="24" height="24" viewBox="0 0 24 24" fill="none" xmlns="http://www.w3.org/2000/svg">
<path d="M2.5 12C2.5 7.522 2.5 5.282 3.891 3.891C5.282 2.5 7.521 2.5 12 2.5C16.478 2.5 18.718 2.5 20.109 3.891C21.5 5.282 21.5 7.521 21.5 12C21.5 16.478 21.5 18.718 20.109 20.109C18.718 21.5 16.479 21.5 12 21.5C7.522 21.5 5.282 21.5 3.891 20.109C2.5 18.718 2.5 16.479 2.5 12Z" stroke="#454545" stroke-width="1.5" stroke-linecap="round" stroke-linejoin="round"/>
<path d="M2.5 14.5H3.039C3.511 14.5 3.747 14.5 3.953 14.401C4.158 14.303 4.305 14.118 4.6 13.749L6 12L7.5 14.5L9 11L11.5 16L15 9L17 12.5L18.5 11L19.945 13.168C20.197 13.546 20.323 13.735 20.507 13.849C20.5437 13.8717 20.5817 13.892 20.621 13.91C20.819 14 21.046 14 21.5 14M15 2.5V5.5M15 21.5V14.5" stroke="#4BCF80" stroke-width="1.5" stroke-linecap="round" stroke-linejoin="round"/>
<path d="M15 10C15.5523 10 16 9.55228 16 9C16 8.44772 15.5523 8 15 8C14.4477 8 14 8.44772 14 9C14 9.55228 14.4477 10 15 10Z" stroke="#FF6767" stroke-width="1.5" stroke-linecap="round" stroke-linejoin="round"/>
</svg>
